<?xml version="1.0" encoding="UTF-8" standalone="no"?>
<!-- Created with Inkscape (http://www.inkscape.org/) -->

<svg
   version="1.1"
   id="svg3285"
   width="793.70081"
   height="1122.5197"
   viewBox="0 0 793.70081 1122.5197"
   xmlns="http://www.w3.org/2000/svg"
   xmlnsSvg="http://www.w3.org/2000/svg">
  <defs
     id="defs3289" />
  <path
     style="fill:#3e50b4;stroke-width:1.33333"
     d="m 19.34454,105.34466 -7.921881,-8.005415 2.180698,-2.180697 2.180698,-2.180697 6.184842,5.068013 6.184844,5.068016 9.671351,-9.606807 9.671352,-9.606805 2.214339,2.446817 2.214338,2.446816 -12.32935,12.278089 -12.32935,12.27808 z m 0,-34.666668 -7.921881,-8.005413 2.180698,-2.180698 2.180698,-2.180697 6.184842,5.068013 6.184844,5.068015 9.671351,-9.606805 9.671352,-9.606806 2.214339,2.446818 2.214338,2.446816 -12.32935,12.278085 -12.32935,12.278085 z m 0,-34.666667 -7.921881,-8.005413 2.180698,-2.180697 2.180698,-2.180698 6.184842,5.068014 6.184844,5.068014 9.671351,-9.606805 9.671352,-9.606805 2.214339,2.446817 2.214338,2.446816 -12.32935,12.278085 -12.32935,12.278086 z"
     id="path3511" />
  <path
     style="fill:#8fc9f8;stroke-width:1.33333"
     d="M 64,98.666667 V 93.333333 H 90.666667 117.33333 V 98.666667 104 H 90.666667 64 Z M 64,64 V 58.666667 H 90.666667 117.33333 V 64 69.333333 H 90.666667 64 Z M 64,29.333333 V 24 h 26.666667 26.666663 v 5.333333 5.333334 H 90.666667 64 Z"
     id="path3513" />
</svg>
