<?xml version="1.0" encoding="UTF-8" standalone="no"?>
<!-- Created with Inkscape (http://www.inkscape.org/) -->

<svg
   version="1.1"
   id="svg2"
   width="128"
   height="128"
   viewBox="0 0 128 128"
   xmlns="http://www.w3.org/2000/svg"
   xmlnsSvg="http://www.w3.org/2000/svg">
  <defs
     id="defs6" />
  <g
     id="layer1">
    <path
       style="display:inline;fill:#feca7e;stroke-width:1.33333"
       d="m 71.530952,59.161068 -18.994265,-19.028215 4.694619,-4.550204 4.69462,-4.550205 v 3.328222 3.328223 l 1.6,1.6 1.6,1.6 h 2.753078 2.753079 l 5.123248,-2.745896 5.123247,-2.745896 0.740261,0.740261 0.740261,0.740262 -1.54992,3.401705 -1.549921,3.401705 v 3.774003 3.774004 l 2.011285,1.669217 2.011284,1.669219 4.816572,-0.781623 4.816571,-0.781621 -0.828311,5.179971 -0.82831,5.17997 2.192129,2.19213 2.192129,2.192129 3.141659,-0.788505 3.141663,-0.788507 v 0.414459 0.414458 l -5.700358,5.594475 -5.700354,5.594473 z"
       id="path1541" />
    <path
       style="display:inline;fill:#fe9803;stroke-width:1.3525"
       d="m 91.720818,66.900017 -0.852688,-1.396282 0.437232,-5.066681 0.43723,-5.066683 -5.258232,0.32486 -5.258233,0.324861 -1.8001,-1.51193 -1.800101,-1.511929 v -2.798201 -2.7982 l 1.602309,-4.484434 1.602308,-4.48443 -0.859915,-0.870263 -0.859914,-0.870265 -6.150622,3.013297 -6.150622,3.013295 -3.33066,-2.208594 -3.330662,-2.208598 v -2.79089 -2.790889 l 7.599096,-8.062734 7.599097,-8.062734 h 1.457879 1.45788 l 17.831911,18.009361 17.831909,18.009361 v 1.533492 1.533494 l -6.66463,6.308999 -6.66462,6.308996 h -4.01158 -4.011585 z"
       id="path1539" />
    <path
       style="display:inline;fill:#fd5621;stroke-width:1.33333"
       d="m 21.647273,113.32799 -3.019393,-1.25641 -1.397984,-3.67697 -1.397983,-3.67698 1.293311,-5.095246 1.293312,-5.095249 3.124065,-4.563954 3.124066,-4.563954 9.218368,-5.032947 9.218368,-5.032947 1.405409,-2.27615 1.405409,-2.276151 -2.938664,-9.038592 -2.938664,-9.038592 2.663815,-2.663815 2.663815,-2.663814 18.962962,18.962962 18.962963,18.962963 -2.671019,2.671019 -2.671017,2.671018 -7.171487,-2.72495 L 63.605439,85.19428 60.136052,85.59714 56.666667,86 l -4.157492,7.828943 -4.157492,7.828947 -3.666824,3.885 -3.666824,3.88501 -3.555091,1.83841 -3.555091,1.83841 -4.620593,0.73984 -4.620593,0.73983 z"
       id="path1537" />
    <path
       style="display:inline;fill:#dc2c00;stroke-width:1.33333"
       d="M 64.254565,66.25502 45.26476,47.231275 l 3.745435,-3.588355 3.745433,-3.588353 18.989807,19.023746 18.989805,19.023746 -3.745435,3.588354 -3.745433,3.588354 z"
       id="path1535" />
  </g>
</svg>
